<svg width="30" height="29" viewBox="0 0 30 29" fill="none" xmlns="http://www.w3.org/2000/svg">
<path d="M10.0938 15.0312L16.1562 21.0938C16.3021 21.2396 16.4792 21.3125 16.6875 21.3125C16.8958 21.3125 17.0729 21.2396 17.2188 21.0938L17.9062 20.4062C18.0521 20.2604 18.1354 20.0833 18.1562 19.875C18.1562 19.6667 18.0833 19.4896 17.9375 19.3438L13.0938 14.5L17.9375 9.65625C18.0833 9.51042 18.1562 9.33333 18.1562 9.125C18.1354 8.91667 18.0521 8.73958 17.9062 8.59375L17.2188 7.90625C17.0729 7.76042 16.8958 7.6875 16.6875 7.6875C16.4792 7.6875 16.3021 7.76042 16.1562 7.90625L10.0938 13.9688C9.92708 14.1146 9.84375 14.2917 9.84375 14.5C9.84375 14.7083 9.92708 14.8854 10.0938 15.0312Z" fill="#18726E"/>
<rect x="1" y="0.5" width="28" height="28" stroke="#18726E" stroke-width="0.5"/>
</svg>
