<svg width="30" height="29" viewBox="0 0 30 29" fill="none" xmlns="http://www.w3.org/2000/svg">
<rect x="1" y="0.5" width="28" height="28" fill="#18726E" stroke="#18726E" stroke-width="0.5"/>
<path d="M19.9062 15.0312L13.8438 21.0938C13.6979 21.2396 13.5208 21.3125 13.3125 21.3125C13.1042 21.3125 12.9271 21.2396 12.7812 21.0938L12.0938 20.4062C11.9479 20.2604 11.8646 20.0833 11.8438 19.875C11.8438 19.6667 11.9167 19.4896 12.0625 19.3438L16.9062 14.5L12.0625 9.65625C11.9167 9.51042 11.8438 9.33333 11.8438 9.125C11.8646 8.91667 11.9479 8.73958 12.0938 8.59375L12.7812 7.90625C12.9271 7.76042 13.1042 7.6875 13.3125 7.6875C13.5208 7.6875 13.6979 7.76042 13.8438 7.90625L19.9062 13.9688C20.0729 14.1146 20.1562 14.2917 20.1562 14.5C20.1562 14.7083 20.0729 14.8854 19.9062 15.0312Z" fill="#FAFAFA"/>
</svg>
